<svg id="visual" viewBox="0 0 900 600" width="900" height="600" xmlns="http://www.w3.org/2000/svg" xmlns:xlink="http://www.w3.org/1999/xlink" version="1.1"><g stroke-width="1" stroke-linejoin="bevel"><path d="M484 267L586 239L537 210Z" fill="#ff884f" stroke="#ff884f"></path><path d="M484 267L602 336L586 239Z" fill="#fcaf3c" stroke="#fcaf3c"></path><path d="M531 422L628 370L602 336Z" fill="#ff9447" stroke="#ff9447"></path><path d="M721 318L693 207L586 239Z" fill="#ff8153" stroke="#ff8153"></path><path d="M537 210L406 192L484 267Z" fill="#ff8e4b" stroke="#ff8e4b"></path><path d="M367 425L531 422L484 267Z" fill="#ff6f61" stroke="#ff6f61"></path><path d="M484 267L531 422L602 336Z" fill="#fea83e" stroke="#fea83e"></path><path d="M721 318L586 239L602 336Z" fill="#ff884f" stroke="#ff884f"></path><path d="M586 239L620 100L537 210Z" fill="#ff9447" stroke="#ff9447"></path><path d="M537 210L485 73L406 192Z" fill="#ff755c" stroke="#ff755c"></path><path d="M698 508L685 360L628 370Z" fill="#ff8e4b" stroke="#ff8e4b"></path><path d="M628 370L685 360L602 336Z" fill="#ff755c" stroke="#ff755c"></path><path d="M406 192L361 308L484 267Z" fill="#ff755c" stroke="#ff755c"></path><path d="M662 123L620 100L586 239Z" fill="#ff8e4b" stroke="#ff8e4b"></path><path d="M693 207L662 123L586 239Z" fill="#ff6f61" stroke="#ff6f61"></path><path d="M685 360L721 318L602 336Z" fill="#ff884f" stroke="#ff884f"></path><path d="M620 100L485 73L537 210Z" fill="#fea83e" stroke="#fea83e"></path><path d="M485 73L412 96L406 192Z" fill="#ff8e4b" stroke="#ff8e4b"></path><path d="M406 192L269 290L361 308Z" fill="#ff7b58" stroke="#ff7b58"></path><path d="M367 425L466 487L531 422Z" fill="#ff884f" stroke="#ff884f"></path><path d="M531 422L613 524L628 370Z" fill="#ff6f61" stroke="#ff6f61"></path><path d="M361 308L367 425L484 267Z" fill="#ff8153" stroke="#ff8153"></path><path d="M721 318L775 186L693 207Z" fill="#ff6f61" stroke="#ff6f61"></path><path d="M693 207L775 186L662 123Z" fill="#ff755c" stroke="#ff755c"></path><path d="M367 425L373 464L466 487Z" fill="#fcaf3c" stroke="#fcaf3c"></path><path d="M583 0L485 73L620 100Z" fill="#ff9447" stroke="#ff9447"></path><path d="M583 0L513 0L485 73Z" fill="#ff755c" stroke="#ff755c"></path><path d="M485 73L413 0L412 96Z" fill="#ff9b44" stroke="#ff9b44"></path><path d="M583 0L620 100L688 0Z" fill="#ff8153" stroke="#ff8153"></path><path d="M688 0L620 100L662 123Z" fill="#ff9b44" stroke="#ff9b44"></path><path d="M262 163L269 290L406 192Z" fill="#ff884f" stroke="#ff884f"></path><path d="M361 308L284 361L367 425Z" fill="#ff755c" stroke="#ff755c"></path><path d="M367 425L321 529L373 464Z" fill="#ff8e4b" stroke="#ff8e4b"></path><path d="M539 600L613 524L466 487Z" fill="#ffa241" stroke="#ffa241"></path><path d="M466 487L613 524L531 422Z" fill="#ff8e4b" stroke="#ff8e4b"></path><path d="M804 396L817 297L721 318Z" fill="#ff7b58" stroke="#ff7b58"></path><path d="M269 290L284 361L361 308Z" fill="#ff7b58" stroke="#ff7b58"></path><path d="M804 396L721 318L685 360Z" fill="#ffa241" stroke="#ffa241"></path><path d="M721 318L817 297L775 186Z" fill="#ff9447" stroke="#ff9447"></path><path d="M613 524L698 508L628 370Z" fill="#ff8e4b" stroke="#ff8e4b"></path><path d="M331 0L276 136L412 96Z" fill="#ffa241" stroke="#ffa241"></path><path d="M412 96L276 136L406 192Z" fill="#ff755c" stroke="#ff755c"></path><path d="M513 0L413 0L485 73Z" fill="#fea83e" stroke="#fea83e"></path><path d="M276 136L262 163L406 192Z" fill="#fea83e" stroke="#fea83e"></path><path d="M698 508L804 396L685 360Z" fill="#ffa241" stroke="#ffa241"></path><path d="M900 215L803 127L775 186Z" fill="#fcaf3c" stroke="#fcaf3c"></path><path d="M775 186L803 127L662 123Z" fill="#ffa241" stroke="#ffa241"></path><path d="M803 127L688 0L662 123Z" fill="#fcaf3c" stroke="#fcaf3c"></path><path d="M183 195L216 300L269 290Z" fill="#ff6f61" stroke="#ff6f61"></path><path d="M269 290L216 300L284 361Z" fill="#fea83e" stroke="#fea83e"></path><path d="M284 361L321 529L367 425Z" fill="#fcaf3c" stroke="#fcaf3c"></path><path d="M413 0L331 0L412 96Z" fill="#ff884f" stroke="#ff884f"></path><path d="M276 136L224 93L262 163Z" fill="#ff6f61" stroke="#ff6f61"></path><path d="M361 600L539 600L466 487Z" fill="#ff9447" stroke="#ff9447"></path><path d="M613 524L713 600L698 508Z" fill="#ff8153" stroke="#ff8153"></path><path d="M539 600L583 600L613 524Z" fill="#ffa241" stroke="#ffa241"></path><path d="M188 471L321 529L284 361Z" fill="#ff755c" stroke="#ff755c"></path><path d="M373 464L361 600L466 487Z" fill="#ff8153" stroke="#ff8153"></path><path d="M713 600L778 512L698 508Z" fill="#ffa241" stroke="#ffa241"></path><path d="M698 508L778 512L804 396Z" fill="#fcaf3c" stroke="#fcaf3c"></path><path d="M216 300L203 386L284 361Z" fill="#fcaf3c" stroke="#fcaf3c"></path><path d="M331 0L224 93L276 136Z" fill="#ff8e4b" stroke="#ff8e4b"></path><path d="M262 163L183 195L269 290Z" fill="#ff8153" stroke="#ff8153"></path><path d="M216 300L112 406L203 386Z" fill="#ff7b58" stroke="#ff7b58"></path><path d="M803 127L784 0L688 0Z" fill="#fcaf3c" stroke="#fcaf3c"></path><path d="M224 93L183 195L262 163Z" fill="#ff8e4b" stroke="#ff8e4b"></path><path d="M900 368L900 298L817 297Z" fill="#ff9b44" stroke="#ff9b44"></path><path d="M817 297L900 215L775 186Z" fill="#ff7b58" stroke="#ff7b58"></path><path d="M803 127L900 0L784 0Z" fill="#fcaf3c" stroke="#fcaf3c"></path><path d="M900 368L817 297L804 396Z" fill="#ff8153" stroke="#ff8153"></path><path d="M900 298L900 215L817 297Z" fill="#ff8e4b" stroke="#ff8e4b"></path><path d="M900 532L900 368L804 396Z" fill="#ff884f" stroke="#ff884f"></path><path d="M583 600L713 600L613 524Z" fill="#ff9447" stroke="#ff9447"></path><path d="M778 512L900 532L804 396Z" fill="#fcaf3c" stroke="#fcaf3c"></path><path d="M319 600L361 600L321 529Z" fill="#ffa241" stroke="#ffa241"></path><path d="M321 529L361 600L373 464Z" fill="#ff7b58" stroke="#ff7b58"></path><path d="M900 215L900 123L803 127Z" fill="#ff9b44" stroke="#ff9b44"></path><path d="M185 600L319 600L321 529Z" fill="#ff7b58" stroke="#ff7b58"></path><path d="M331 0L235 0L224 93Z" fill="#ff9b44" stroke="#ff9b44"></path><path d="M79 63L91 216L183 195Z" fill="#fcaf3c" stroke="#fcaf3c"></path><path d="M713 600L761 600L778 512Z" fill="#ff7b58" stroke="#ff7b58"></path><path d="M112 406L188 471L203 386Z" fill="#ff884f" stroke="#ff884f"></path><path d="M203 386L188 471L284 361Z" fill="#fea83e" stroke="#fea83e"></path><path d="M900 123L900 0L803 127Z" fill="#ff6f61" stroke="#ff6f61"></path><path d="M82 277L112 406L216 300Z" fill="#ff8153" stroke="#ff8153"></path><path d="M188 471L185 600L321 529Z" fill="#ff884f" stroke="#ff884f"></path><path d="M82 277L216 300L183 195Z" fill="#ff9447" stroke="#ff9447"></path><path d="M79 63L183 195L224 93Z" fill="#ff884f" stroke="#ff884f"></path><path d="M900 600L900 532L778 512Z" fill="#ff6f61" stroke="#ff6f61"></path><path d="M91 216L82 277L183 195Z" fill="#ff9447" stroke="#ff9447"></path><path d="M0 523L131 524L112 406Z" fill="#ff9b44" stroke="#ff9b44"></path><path d="M112 406L131 524L188 471Z" fill="#fcaf3c" stroke="#fcaf3c"></path><path d="M131 524L185 600L188 471Z" fill="#ff884f" stroke="#ff884f"></path><path d="M761 600L900 600L778 512Z" fill="#ff9b44" stroke="#ff9b44"></path><path d="M235 0L120 0L224 93Z" fill="#ff8e4b" stroke="#ff8e4b"></path><path d="M0 212L0 287L82 277Z" fill="#ff6f61" stroke="#ff6f61"></path><path d="M120 0L79 63L224 93Z" fill="#ff6f61" stroke="#ff6f61"></path><path d="M82 277L0 395L112 406Z" fill="#ffa241" stroke="#ffa241"></path><path d="M0 212L82 277L91 216Z" fill="#ff9b44" stroke="#ff9b44"></path><path d="M0 86L0 212L91 216Z" fill="#fea83e" stroke="#fea83e"></path><path d="M0 287L0 395L82 277Z" fill="#ff9b44" stroke="#ff9b44"></path><path d="M131 524L87 600L185 600Z" fill="#fea83e" stroke="#fea83e"></path><path d="M0 523L87 600L131 524Z" fill="#fea83e" stroke="#fea83e"></path><path d="M0 0L0 86L79 63Z" fill="#ff755c" stroke="#ff755c"></path><path d="M79 63L0 86L91 216Z" fill="#ff8e4b" stroke="#ff8e4b"></path><path d="M0 395L0 523L112 406Z" fill="#ff8153" stroke="#ff8153"></path><path d="M120 0L0 0L79 63Z" fill="#ff8e4b" stroke="#ff8e4b"></path><path d="M0 523L0 600L87 600Z" fill="#ff8153" stroke="#ff8153"></path></g></svg>